<?xml version="1.0" encoding="UTF-8"?>
<svg width="133px" height="35px" viewBox="0 0 133 34" version="1.1" xmlns="http://www.w3.org/2000/svg" xmlns:xlink="http://www.w3.org/1999/xlink">
    <!-- Generator: Sketch 53.1 (72631) - https://sketchapp.com -->
    <title>Group 13</title>
    <desc>Created with Sketch.</desc>
    <defs>
        <polygon id="path-1" points="0.209298841 0.0581487342 20.4173717 0.0581487342 20.4173717 7.2372776 0.209298841 7.2372776"></polygon>
        <polygon id="path-3" points="0 0.12325378 25.6372253 0.12325378 25.6372253 25.1977848 0 25.1977848"></polygon>
    </defs>
    <g id="Nav_Roboto_Dating" stroke="none" stroke-width="1" fill="none" fill-rule="evenodd">
        <g id="Dating-Desk_minimal++_footer" transform="translate(-355.000000, -39.000000)">
            <g id="Footer" transform="translate(-120.000000, 0.000000)">
                <g id="Group-11">
                    <g id="Group-4">
                        <g id="Group-12">
                            <g id="Group-13" transform="translate(475.000000, 39.000000)">
                                <g id="Group-3" transform="translate(2.201987, 0.157217)">
                                    <mask id="mask-2" fill="white">
                                        <use xlink:href="#path-1"></use>
                                    </mask>
                                    <g id="Clip-2"></g>
                                    <path d="M10.3133353,2.59097838 C13.9618071,2.59097838 16.4322161,3.18021888 17.44513,3.64756241 C16.4322161,4.11490594 13.9618071,4.70436181 10.3133353,4.70436181 C6.66486341,4.70436181 4.19445447,4.11490594 3.18154056,3.64756241 C4.19445447,3.18021888 6.66486341,2.59097838 10.3133353,2.59097838 M10.3133353,7.2372776 C12.776918,7.2372776 15.108822,6.98034634 16.8794396,6.51321818 C19.2269776,5.89425721 20.4173717,4.92984968 20.4173717,3.64756241 C20.4173717,0.231001231 12.0004975,0.0580625879 10.3133353,0.0580625879 C7.84975248,0.0580625879 5.51784851,0.315209212 3.74723096,0.782122011 C1.39947268,1.40129835 0.209298841,2.36549051 0.209298841,3.64756241 C0.209298841,7.06433896 8.62617301,7.2372776 10.3133353,7.2372776" id="Fill-1" fill="#FFFFFF" mask="url(#mask-2)"></path>
                                </g>
                                <g id="Group-6" transform="translate(0.000000, 8.771844)">
                                    <mask id="mask-4" fill="white">
                                        <use xlink:href="#path-3"></use>
                                    </mask>
                                    <g id="Clip-5"></g>
                                    <path d="M16.3104902,19.6795345 L9.32666904,19.6795345 C5.41131639,19.6795345 2.22570215,16.5638392 2.22570215,12.7342067 C2.22570215,8.90478947 5.41131639,5.78909415 9.32666904,5.78909415 L16.3104902,5.78909415 C20.2260631,5.78909415 23.4114571,8.90478947 23.4114571,12.7342067 C23.4114571,16.5638392 20.2260631,19.6795345 16.3104902,19.6795345 M12.8185796,0.12325378 C5.73897202,0.12325378 -6.60596026e-05,5.73654492 -6.60596026e-05,12.6605516 C-6.60596026e-05,19.5847736 5.73897202,25.1978494 12.8185796,25.1978494 C19.8981873,25.1978494 25.6372253,19.5847736 25.6372253,12.6605516 C25.6372253,5.73654492 19.8981873,0.12325378 12.8185796,0.12325378" id="Fill-4" fill="#FFFFFF" mask="url(#mask-4)"></path>
                                </g>
                                <path d="M17.0291967,21.710476 C16.3153126,21.710476 15.7366305,21.144495 15.7366305,20.4462794 C15.7366305,19.7480639 16.3153126,19.1818675 17.0291967,19.1818675 C17.743301,19.1818675 18.3219831,19.7480639 18.3219831,20.4462794 C18.3219831,21.144495 17.743301,21.710476 17.0291967,21.710476 M8.60791854,21.710476 C7.89403444,21.710476 7.31535232,21.144495 7.31535232,20.4462794 C7.31535232,19.7480639 7.89403444,19.1818675 8.60791854,19.1818675 C9.32202285,19.1818675 9.90070497,19.7480639 9.90070497,20.4462794 C9.90070497,21.144495 9.32202285,21.710476 8.60791854,21.710476 M16.3104682,17.0938972 L9.32664702,17.0938972 C6.83928278,17.0938972 4.81565695,19.0733232 4.81565695,21.506094 C4.81565695,23.9390801 6.83928278,25.9182907 9.32664702,25.9182907 L16.3104682,25.9182907 C18.7978325,25.9182907 20.8216785,23.9390801 20.8216785,21.506094 C20.8216785,19.0733232 18.7978325,17.0938972 16.3104682,17.0938972" id="Fill-7" fill="#FFFFFF"></path>
                                <polygon id="Fill-9" fill="#FFFFFF" points="43.626246 14.5550374 32.865357 14.5550374 32.865357 17.3405771 36.7100258 17.3405771 36.7100258 28.4224336 39.8427924 28.4224336 39.8427924 17.3405771 43.626246 17.3405771"></polygon>
                                <path d="M48.5886214,26.0348251 C47.0835634,26.0348251 45.9239972,24.8808957 45.9239972,23.4086559 C45.9239972,21.9564451 47.0835634,20.7822714 48.5886214,20.7822714 C50.0736412,20.7822714 51.2534657,21.9564451 51.2534657,23.4086559 C51.2534657,24.8808957 50.0736412,26.0348251 48.5886214,26.0348251 M48.5886214,18.096446 C45.4153382,18.096446 42.8929624,20.4441473 42.8929624,23.4086559 C42.8929624,26.3729492 45.4153382,28.7208659 48.5886214,28.7208659 C51.7416462,28.7208659 54.2847207,26.3729492 54.2847207,23.4086559 C54.2847207,20.4441473 51.7416462,18.096446 48.5886214,18.096446" id="Fill-11" fill="#FFFFFF"></path>
                                <path d="M61.4029512,25.9153617 C59.9179313,25.9153617 58.7178485,24.8213041 58.7178485,23.4085052 C58.7178485,21.996137 59.9179313,20.901864 61.4029512,20.901864 C62.8674925,20.901864 64.0068005,21.996137 64.0068005,23.4085052 C64.0068005,24.8213041 62.8674925,25.9153617 61.4029512,25.9153617 M61.9523469,18.2158232 C60.3860737,18.2158232 59.1855505,18.8524442 58.9010538,19.708092 L58.9010538,18.3950075 L55.8697988,18.3950075 L55.8697988,32.2621884 L58.9010538,32.2621884 L58.9010538,27.1093491 C59.1855505,27.9845952 60.3860737,28.6014025 61.9523469,28.6014025 C64.8611714,28.6014025 67.0378353,26.2935439 67.0378353,23.4085052 C67.0378353,20.5038682 64.8611714,18.2158232 61.9523469,18.2158232" id="Fill-13" fill="#FFFFFF"></path>
                                <polygon id="Fill-15" fill="#FFFFFF" points="67.6463763 17.3404909 69.7213084 17.3404909 69.7213084 28.4223475 72.854075 28.4223475 72.854075 14.5549512 67.6463763 14.5549512"></polygon>
                                <path d="M82.5565571,25.9153617 C80.0542194,25.9153617 78.1217558,24.0054989 78.1217558,21.518456 C78.1217558,19.0910694 80.0542194,17.1215502 82.5565571,17.1215502 C85.0584545,17.1215502 86.9911382,19.1110984 86.9911382,21.518456 C86.9911382,23.9656562 85.037976,25.9153617 82.5565571,25.9153617 M82.5565571,14.3362258 C78.3659561,14.3362258 74.9892094,17.4997323 74.9892094,21.518456 C74.9892094,25.557424 78.3659561,28.7009015 82.5565571,28.7009015 C86.7674164,28.7009015 90.1236846,25.557424 90.1236846,21.518456 C90.1236846,17.4997323 86.7674164,14.3362258 82.5565571,14.3362258" id="Fill-17" fill="#FFFFFF"></path>
                                <path d="M91.7901262,25.378412 C90.8947983,25.378412 90.1221212,26.0945029 90.1221212,26.989778 C90.1221212,27.8850532 90.8947983,28.6013594 91.7901262,28.6013594 C92.6852338,28.6013594 93.4579109,27.8850532 93.4579109,26.989778 C93.4579109,26.0945029 92.6852338,25.378412 91.7901262,25.378412" id="Fill-19" fill="#FFFFFF"></path>
                                <path d="M99.5803369,20.7625655 C100.638392,20.7625655 101.309557,21.1405323 101.940206,21.7971822 L103.852191,19.9467603 C102.550377,18.5539904 101.105873,18.0765247 99.5803369,18.0765247 C96.4477906,18.0765247 93.9251945,20.3249424 93.9251945,23.3885193 C93.9251945,26.4527422 96.4477906,28.6809155 99.5803369,28.6809155 C101.105873,28.6809155 102.550377,28.2034498 103.852191,26.8106799 L101.940206,24.9604734 C101.309557,25.6171233 100.638392,25.9950901 99.5803369,25.9950901 C98.1157955,25.9950901 96.9564495,24.9008171 96.9564495,23.3885193 C96.9564495,21.8568385 98.1157955,20.7625655 99.5803369,20.7625655" id="Fill-21" fill="#FFFFFF"></path>
                                <path d="M110.177288,26.0348251 C108.67223,26.0348251 107.512664,24.8808957 107.512664,23.4086559 C107.512664,21.9564451 108.67223,20.7822714 110.177288,20.7822714 C111.662308,20.7822714 112.842132,21.9564451 112.842132,23.4086559 C112.842132,24.8808957 111.662308,26.0348251 110.177288,26.0348251 M110.177288,18.096446 C107.004005,18.096446 104.481629,20.4441473 104.481629,23.4086559 C104.481629,26.3729492 107.004005,28.7208659 110.177288,28.7208659 C113.330313,28.7208659 115.873387,26.3729492 115.873387,23.4086559 C115.873387,20.4441473 113.330313,18.096446 110.177288,18.096446" id="Fill-23" fill="#FFFFFF"></path>
                                <path d="M129.358707,18.1760667 C127.914424,18.1760667 126.612389,18.5141908 125.941223,19.7678345 C125.473521,18.7330024 124.557935,18.1760667 123.154169,18.1760667 C121.893311,18.1760667 120.875993,18.772845 120.489544,19.6483065 L120.489544,18.3950936 L117.45851,18.3950936 L117.45851,28.4223044 L120.489544,28.4223044 L120.489544,22.791784 C120.489544,21.6178257 121.201667,20.8022358 122.178028,20.8022358 C123.174867,20.8022358 123.703564,21.5383557 123.703564,22.6925004 L123.703564,28.4223044 L126.734819,28.4223044 L126.734819,22.791784 C126.734819,21.6178257 127.446722,20.8022358 128.443561,20.8022358 C129.43996,20.8022358 129.969097,21.5383557 129.969097,22.6925004 L129.969097,28.4223044 L132.999912,28.4223044 L132.999912,22.3343473 C132.999912,19.7478055 131.698097,18.1760667 129.358707,18.1760667" id="Fill-25" fill="#FFFFFF"></path>
                            </g>
                        </g>
                    </g>
                </g>
            </g>
        </g>
    </g>
</svg>