<svg xmlns="http://www.w3.org/2000/svg" width="120" height="21"><title>sUntitled-1</title><desc>Created with Sketch.</desc><g fill="none"><g fill-rule="nonzero"><g><path id="Shape" fill="#2FA6F8" d="M8.3 20.28c-.08-.03-8.3-2.8-8.3-12.7V.35c0-.17.13-.3.3-.3h16.22c.1 0 .16.02.22.08s.1.14.08.22v7.23c0 9.9-8.22 12.67-8.3 12.7-.07.03-.15.03-.2 0"/><path id="Shape" fill="#0E5396" d="M12.08 12.63c-.36.26-.76.47-1.18.6-1.18.4-2.46.3-3.56-.28-1.06-.57-1.87-1.53-2.27-2.7 0-.06-.07-.1-.12-.08-.06 0-.1.06-.1.12.08.78.35 1.54.8 2.2 1.36 1.96 4 2.4 5.88.97.25-.2.5-.42.7-.66.03-.04.03-.1 0-.15-.04-.04-.1-.05-.15-.02"/><path id="Shape" fill="#00FFCA" d="M8.8 3.96c2.36.8 3.72 3.5 3.02 6-.02.07 0 .13.06.15.03.03.08.02.1 0 .02 0 .03-.02.04-.04.4-.7.6-1.47.6-2.26 0-1.18-.44-2.3-1.24-3.12-.8-.83-1.85-1.3-2.98-1.3-.3 0-.62.04-.93.1-.06.03-.1.08-.1.14.02.06.07.1.12.1.43.02.87.1 1.3.24"/><path id="Shape" fill="#F65260" d="M3.37 8.25c.15-.43.36-.84.62-1.22.27-.4.62-.78 1.02-1.08.6-.45 1.27-.75 2-.87 1.18-.2 2.4.1 3.36.8.04.02.1.02.14-.03.04-.04.04-.1 0-.15-.5-.6-1.14-1.04-1.87-1.3-2.2-.75-4.6.52-5.3 2.84-.1.3-.17.63-.2.96 0 .06.04.1.1.13.05 0 .1-.03.12-.08"/><path id="Shape" fill="#FBCC62" d="M5.3 12.77c-1.48-2.12-1.06-5.14.9-6.73.06-.04.07-.1.04-.15-.03-.06-.1-.08-.14-.06-.7.32-1.3.83-1.75 1.47-1.37 1.97-.95 4.74.93 6.17.25.2.53.36.8.5.05 0 .1 0 .12-.03.03-.02.05-.05.05-.1 0-.03-.02-.06-.05-.08-.35-.3-.65-.62-.9-1"/><path fill="#090A19" d="M27.54 8.97l-.03 4.65h1.9V3h-1.86v4.3h-4.72V3h-1.86v10.62h1.86V8.97h4.72zm3.44.97c0-2.4 1.45-3.93 3.7-3.93s3.7 1.54 3.7 3.94c0 2.37-1.43 3.87-3.7 3.87-2.27 0-3.7-1.5-3.7-3.86zm1.76-.04c0 1.5.8 2.38 1.94 2.38 1.13 0 1.94-.9 1.94-2.38 0-1.5-.78-2.37-1.94-2.37s-1.94.9-1.94 2.37zm11.3 2.38c-.2.03-.47.06-.78.06-.3 0-.6-.04-.74-.2-.14-.14-.2-.34-.2-.77v-3.8h1.72v-1.4h-1.72V3.2h-1.77v2.98h-1.6v1.4h1.6v4.1c0 .7 0 1.13.3 1.5.4.5 1.16.63 1.87.63.53 0 .98-.03 1.32-.1v-1.42zm7.2-5.1C50.73 6.65 49.6 6 48.13 6c-1.4 0-2.98.7-2.98 2.3 0 1.37 1 1.92 2.3 2.2l1.1.23c.7.16 1.13.25 1.13.77 0 .53-.52.84-1.4.84-1.14 0-1.85-.54-2.27-1.1l-1.2 1.06c.45.64 1.65 1.5 3.42 1.5 1.7 0 3.23-.8 3.23-2.5 0-1.36-1-1.8-2.13-2.05l-.9-.2c-1.03-.22-1.54-.33-1.54-.86 0-.5.53-.75 1.22-.75.86 0 1.57.34 2.08.84l1.03-1.12zm5.62 6.63c-1 0-1.7-.38-2.17-.96v3.75H52.9V6.17h1.77V7c.4-.53 1.2-1 2.16-1 2 0 3.28 1.62 3.28 3.94 0 2.23-1.3 3.87-3.28 3.87zM54.6 9.9c0 1.44.77 2.36 1.9 2.36 1.12 0 1.87-.9 1.87-2.35 0-1.5-.75-2.37-1.88-2.37s-1.9.94-1.9 2.38zm6.66.04c0-2.4 1.44-3.93 3.7-3.93 2.24 0 3.7 1.54 3.7 3.94 0 2.37-1.44 3.87-3.7 3.87-2.27 0-3.7-1.5-3.7-3.86zM63 9.9c0 1.5.82 2.38 1.95 2.38s1.94-.9 1.94-2.38c0-1.5-.78-2.37-1.95-2.37-1.16 0-1.94.9-1.94 2.37zm11.3 2.38c-.17.03-.45.06-.76.06-.3 0-.6-.04-.75-.2-.15-.14-.2-.34-.2-.77v-3.8h1.7v-1.4h-1.7V3.2H70.8v2.98h-1.58v1.4h1.58v4.1c0 .7 0 1.13.3 1.5.4.5 1.16.63 1.87.63.52 0 .97-.03 1.3-.1v-1.42zm12.42-7.7c-.63-.7-1.9-1.77-4.1-1.77-2.24 0-4 1.27-4 3.17 0 1.93 1.45 2.67 3.18 3.04l1.4.33c1.08.23 1.8.54 1.8 1.37 0 .85-.72 1.44-2.13 1.44-1.5 0-2.66-.83-3.14-1.63l-1.55 1.14c.73 1.03 2.3 2.17 4.6 2.17 2.63 0 4.23-1.3 4.23-3.27 0-1.94-1.42-2.58-3.4-3.03l-1.26-.28c-1.2-.27-1.7-.57-1.7-1.35 0-.8.7-1.42 1.93-1.42 1.18 0 2.14.55 2.73 1.28l1.42-1.15zm8.36 4.82c0-1.43-.15-2-.5-2.48-.5-.67-1.2-.92-2.03-.92-1.1 0-1.95.48-2.3 1.14V3H88.5v10.62h1.76V9.64c0-1.2.52-2.06 1.63-2.06.75 0 1.13.32 1.3.86.1.37.1.86.1 1.42v3.76h1.78V9.4zm3.65-3.22h-1.77v7.44h1.77V6.18zm0-3.18h-1.77v1.8h1.77V3zm7.47 8l1.23.94c-.33.5-1.32 1.87-3.48 1.87-2.2 0-3.68-1.55-3.68-3.96 0-2.3 1.57-3.83 3.63-3.83 2.36 0 3.5 1.65 3.5 3.94 0 .12-.02.32-.02.45h-5.4c.14 1 .76 1.88 2.06 1.88 1.34 0 1.93-.9 2.16-1.28zm-2.3-3.56c-1 0-1.82.73-1.86 1.62h3.6c-.05-.97-.75-1.62-1.74-1.62zM110.76 3H109v10.62h1.76V3zm4.88 10.8c-1.97 0-3.28-1.63-3.28-3.86 0-2.32 1.27-3.94 3.28-3.94.96 0 1.77.47 2.17 1V3h1.78v10.62h-1.77v-.78c-.46.58-1.17.97-2.16.97zm2.25-3.9c0-1.43-.77-2.37-1.9-2.37-1.12 0-1.87.87-1.87 2.37 0 1.47.75 2.36 1.88 2.36s1.9-.92 1.9-2.35z"/></g></g></g></svg>