<?xml version="1.0" encoding="UTF-8"?>
<svg width="133px" height="35px" viewBox="0 0 133 35" version="1.1" xmlns="http://www.w3.org/2000/svg" xmlns:xlink="http://www.w3.org/1999/xlink">
    <!-- Generator: Sketch 52.6 (67491) - http://www.bohemiancoding.com/sketch -->
    <title>Group 13</title>
    <desc>Created with Sketch.</desc>
    <defs>
        <polygon id="path-1" points="0.209298841 0.0598101266 20.4173717 0.0598101266 20.4173717 7.44405696 0.209298841 7.44405696"></polygon>
        <polygon id="path-3" points="0 0.126775316 25.6372253 0.126775316 25.6372253 25.9177215 0 25.9177215"></polygon>
    </defs>
    <g id="Nav_Monserrat_VPN" stroke="none" stroke-width="1" fill="none" fill-rule="evenodd">
        <g id="Nav_desk_Monsserat_drop" transform="translate(-382.000000, -12.000000)">
            <g id="Nav-Bar" transform="translate(-20.000000, 0.000000)">
                <g id="Group-13" transform="translate(402.000000, 12.000000)">
                    <g id="Group-3" transform="translate(2.201987, 0.161709)">
                        <mask id="mask-2" fill="white">
                            <use xlink:href="#path-1"></use>
                        </mask>
                        <g id="Clip-2"></g>
                        <path d="M10.3133353,2.66500633 C13.9618071,2.66500633 16.4322161,3.27108228 17.44513,3.75177848 C16.4322161,4.23247468 13.9618071,4.83877215 10.3133353,4.83877215 C6.66486341,4.83877215 4.19445447,4.23247468 3.18154056,3.75177848 C4.19445447,3.27108228 6.66486341,2.66500633 10.3133353,2.66500633 M10.3133353,7.44405696 C12.776918,7.44405696 15.108822,7.17978481 16.8794396,6.69931013 C19.2269776,6.06266456 20.4173717,5.07070253 20.4173717,3.75177848 C20.4173717,0.237601266 12.0004975,0.059721519 10.3133353,0.059721519 C7.84975248,0.059721519 5.51784851,0.32421519 3.74723096,0.804468354 C1.39947268,1.44133544 0.209298841,2.43307595 0.209298841,3.75177848 C0.209298841,7.26617722 8.62617301,7.44405696 10.3133353,7.44405696" id="Fill-1" fill="#FF4A64" mask="url(#mask-2)"></path>
                    </g>
                    <g id="Group-6" transform="translate(0.000000, 9.022468)">
                        <mask id="mask-4" fill="white">
                            <use xlink:href="#path-3"></use>
                        </mask>
                        <g id="Clip-5"></g>
                        <path d="M16.3104902,20.241807 L9.32666904,20.241807 C5.41131639,20.241807 2.22570215,17.0370918 2.22570215,13.0980411 C2.22570215,9.15921203 5.41131639,5.95449684 9.32666904,5.95449684 L16.3104902,5.95449684 C20.2260631,5.95449684 23.4114571,9.15921203 23.4114571,13.0980411 C23.4114571,17.0370918 20.2260631,20.241807 16.3104902,20.241807 M12.8185796,0.126775316 C5.73897202,0.126775316 -6.60596026e-05,5.9004462 -6.60596026e-05,13.0222816 C-6.60596026e-05,20.1443386 5.73897202,25.917788 12.8185796,25.917788 C19.8981873,25.917788 25.6372253,20.1443386 25.6372253,13.0222816 C25.6372253,5.9004462 19.8981873,0.126775316 12.8185796,0.126775316" id="Fill-4" fill="#FF4A64" mask="url(#mask-4)"></path>
                    </g>
                    <path d="M17.0291967,22.3307753 C16.3153126,22.3307753 15.7366305,21.7486234 15.7366305,21.0304589 C15.7366305,20.3122943 16.3153126,19.7299209 17.0291967,19.7299209 C17.743301,19.7299209 18.3219831,20.3122943 18.3219831,21.0304589 C18.3219831,21.7486234 17.743301,22.3307753 17.0291967,22.3307753 M8.60791854,22.3307753 C7.89403444,22.3307753 7.31535232,21.7486234 7.31535232,21.0304589 C7.31535232,20.3122943 7.89403444,19.7299209 8.60791854,19.7299209 C9.32202285,19.7299209 9.90070497,20.3122943 9.90070497,21.0304589 C9.90070497,21.7486234 9.32202285,22.3307753 8.60791854,22.3307753 M16.3104682,17.5822943 L9.32664702,17.5822943 C6.83928278,17.5822943 4.81565695,19.6182753 4.81565695,22.1205538 C4.81565695,24.6230538 6.83928278,26.6588133 9.32664702,26.6588133 L16.3104682,26.6588133 C18.7978325,26.6588133 20.8216785,24.6230538 20.8216785,22.1205538 C20.8216785,19.6182753 18.7978325,17.5822943 16.3104682,17.5822943" id="Fill-7" fill="#FF4A64"></path>
                    <polygon id="Fill-9" fill="#FF4A64" points="43.626246 14.9708956 32.865357 14.9708956 32.865357 17.8360222 36.7100258 17.8360222 36.7100258 29.2345032 39.8427924 29.2345032 39.8427924 17.8360222 43.626246 17.8360222"></polygon>
                    <path d="M48.5886214,26.7786772 C47.0835634,26.7786772 45.9239972,25.5917785 45.9239972,24.0774747 C45.9239972,22.5837722 47.0835634,21.3760506 48.5886214,21.3760506 C50.0736412,21.3760506 51.2534657,22.5837722 51.2534657,24.0774747 C51.2534657,25.5917785 50.0736412,26.7786772 48.5886214,26.7786772 M48.5886214,18.6134873 C45.4153382,18.6134873 42.8929624,21.0282658 42.8929624,24.0774747 C42.8929624,27.126462 45.4153382,29.541462 48.5886214,29.541462 C51.7416462,29.541462 54.2847207,27.126462 54.2847207,24.0774747 C54.2847207,21.0282658 51.7416462,18.6134873 48.5886214,18.6134873" id="Fill-11" fill="#FF4A64"></path>
                    <path d="M61.4029512,26.6558006 C59.9179313,26.6558006 58.7178485,25.5304842 58.7178485,24.0773196 C58.7178485,22.6245981 59.9179313,21.4990601 61.4029512,21.4990601 C62.8674925,21.4990601 64.0068005,22.6245981 64.0068005,24.0773196 C64.0068005,25.5304842 62.8674925,26.6558006 61.4029512,26.6558006 M61.9523469,18.7362753 C60.3860737,18.7362753 59.1855505,19.3910854 58.9010538,20.2711804 L58.9010538,18.9205791 L55.8697988,18.9205791 L55.8697988,33.1839652 L58.9010538,33.1839652 L58.9010538,27.8839019 C59.1855505,28.7841551 60.3860737,29.4185854 61.9523469,29.4185854 C64.8611714,29.4185854 67.0378353,27.044788 67.0378353,24.0773196 C67.0378353,21.089693 64.8611714,18.7362753 61.9523469,18.7362753" id="Fill-13" fill="#FF4A64"></path>
                    <polygon id="Fill-15" fill="#FF4A64" points="67.6463763 17.8359335 69.7213084 17.8359335 69.7213084 29.2344146 72.854075 29.2344146 72.854075 14.970807 67.6463763 14.970807"></polygon>
                    <path d="M82.5565571,26.6558006 C80.0542194,26.6558006 78.1217558,24.6913703 78.1217558,22.133269 C78.1217558,19.6365285 80.0542194,17.6107373 82.5565571,17.6107373 C85.0584545,17.6107373 86.9911382,19.6571297 86.9911382,22.133269 C86.9911382,24.6503892 85.037976,26.6558006 82.5565571,26.6558006 M82.5565571,14.7458323 C78.3659561,14.7458323 74.9892094,17.9997247 74.9892094,22.133269 C74.9892094,26.2876361 78.3659561,29.5209272 82.5565571,29.5209272 C86.7674164,29.5209272 90.1236846,26.2876361 90.1236846,22.133269 C90.1236846,17.9997247 86.7674164,14.7458323 82.5565571,14.7458323" id="Fill-17" fill="#FF4A64"></path>
                    <path d="M91.7901262,26.1035095 C90.8947983,26.1035095 90.1221212,26.8400601 90.1221212,27.7609146 C90.1221212,28.681769 90.8947983,29.4185411 91.7901262,29.4185411 C92.6852338,29.4185411 93.4579109,28.681769 93.4579109,27.7609146 C93.4579109,26.8400601 92.6852338,26.1035095 91.7901262,26.1035095" id="Fill-19" fill="#FF4A64"></path>
                    <path d="M99.5803369,21.3557816 C100.638392,21.3557816 101.309557,21.7445475 101.940206,22.4199589 L103.852191,20.5166677 C102.550377,19.0841044 101.105873,18.5929968 99.5803369,18.5929968 C96.4477906,18.5929968 93.9251945,20.9056551 93.9251945,24.0567627 C93.9251945,27.2085348 96.4477906,29.5003703 99.5803369,29.5003703 C101.105873,29.5003703 102.550377,29.0092627 103.852191,27.5766994 L101.940206,25.6736297 C101.309557,26.3490411 100.638392,26.737807 99.5803369,26.737807 C98.1157955,26.737807 96.9564495,25.612269 96.9564495,24.0567627 C96.9564495,22.4813196 98.1157955,21.3557816 99.5803369,21.3557816" id="Fill-21" fill="#FF4A64"></path>
                    <path d="M110.177288,26.7786772 C108.67223,26.7786772 107.512664,25.5917785 107.512664,24.0774747 C107.512664,22.5837722 108.67223,21.3760506 110.177288,21.3760506 C111.662308,21.3760506 112.842132,22.5837722 112.842132,24.0774747 C112.842132,25.5917785 111.662308,26.7786772 110.177288,26.7786772 M110.177288,18.6134873 C107.004005,18.6134873 104.481629,21.0282658 104.481629,24.0774747 C104.481629,27.126462 107.004005,29.541462 110.177288,29.541462 C113.330313,29.541462 115.873387,27.126462 115.873387,24.0774747 C115.873387,21.0282658 113.330313,18.6134873 110.177288,18.6134873" id="Fill-23" fill="#FF4A64"></path>
                    <path d="M129.358707,18.6953829 C127.914424,18.6953829 126.612389,19.0431677 125.941223,20.3326297 C125.473521,19.268231 124.557935,18.6953829 123.154169,18.6953829 C121.893311,18.6953829 120.875993,19.309212 120.489544,20.2096867 L120.489544,18.9206677 L117.45851,18.9206677 L117.45851,29.2343703 L120.489544,29.2343703 L120.489544,23.4429778 C120.489544,22.2354778 121.201667,21.3965854 122.178028,21.3965854 C123.174867,21.3965854 123.703564,22.1537373 123.703564,23.3408576 L123.703564,29.2343703 L126.734819,29.2343703 L126.734819,23.4429778 C126.734819,22.2354778 127.446722,21.3965854 128.443561,21.3965854 C129.43996,21.3965854 129.969097,22.1537373 129.969097,23.3408576 L129.969097,29.2343703 L132.999912,29.2343703 L132.999912,22.9724715 C132.999912,20.3120285 131.698097,18.6953829 129.358707,18.6953829" id="Fill-25" fill="#FF4A64"></path>
                </g>
            </g>
        </g>
    </g>
</svg>